<?xml version="1.0" encoding="UTF-8"?>
<svg id="_图层_1" xmlns="http://www.w3.org/2000/svg" version="1.1" xmlns:xlink="http://www.w3.org/1999/xlink" viewBox="0 0 1024 1024">
  <!-- Generator: Adobe Illustrator 29.6.0, SVG Export Plug-In . SVG Version: 2.1.1 Build 207)  -->
  <defs>
    <style>
      .st0 {
        fill: none;
        stroke: url(#_未命名的渐变_2);
        stroke-miterlimit: 10;
        stroke-width: 20px;
      }

      .st1 {
        fill: url(#_未命名的渐变_3);
      }

      .st2 {
        fill: url(#_未命名的渐变);
      }
    </style>
    <linearGradient id="_未命名的渐变" data-name="未命名的渐变" x1="1725.7" y1="-4.5" x2="1726.8" y2="-3.4" gradientTransform="translate(-1353955.7 2211.8) scale(784.6 428.3)" gradientUnits="userSpaceOnUse">
      <stop offset="0" stop-color="#5b2b82"/>
      <stop offset=".5" stop-color="#5b2b82"/>
      <stop offset="1" stop-color="#6cff00"/>
    </linearGradient>
    <linearGradient id="_未命名的渐变_2" data-name="未命名的渐变 2" x1="1725.7" y1="-4.6" x2="1726.8" y2="-3.5" gradientTransform="translate(-1353955.7 2211.8) scale(784.6 428.3)" gradientUnits="userSpaceOnUse">
      <stop offset="0" stop-color="#5b2b82"/>
      <stop offset=".5" stop-color="#5b2b82"/>
      <stop offset="1" stop-color="#6cff00"/>
    </linearGradient>
    <linearGradient id="_未命名的渐变_3" data-name="未命名的渐变 3" x1="1725.4" y1="-4.1" x2="1726.5" y2="-3" gradientTransform="translate(-1353955.7 2211.8) scale(784.6 428.3)" gradientUnits="userSpaceOnUse">
      <stop offset="0" stop-color="#5b2b82"/>
      <stop offset=".5" stop-color="#5b2b82"/>
      <stop offset="1" stop-color="#6cff00"/>
    </linearGradient>
  </defs>
  <path class="st2" d="M371.1,651l-40.2,96.2H112l244.2-467.7h149.9l152.5,365.9s17.5.6,27.6.6,120.9-3.9,120.9-132.7-123.5-129.9-130.1-129.9-62.3-.6-62.3-.6l-47.2-103.3h139.3c76.6,0,205.1,64.9,205.1,233.8s-112.4,233.8-181.9,233.8h-148.8l-152.2-360.2-143.3,262.8,85.4,1.2h0Z"/>
  <rect class="st0" x="62" y="165.1" width="900" height="664.6" rx="20.9" ry="20.9"/>
  <path class="st1" d="M312,838.9h400c0,11-9,20-20,20h-360c-11,0-20-9-20-20h0Z"/>
</svg>